<svg version="1.1" xmlns="http://www.w3.org/2000/svg" width="14" height="14" viewBox="0 0 64 64">
<title>mail-1</title>
<path d="M59.456 53.696v-27.392q-1.152 1.28-2.496 2.304-9.536 7.36-15.232 12.096-1.792 1.536-2.944 2.368t-3.072 1.792-3.648 0.832h-0.128q-1.664 0-3.648-0.832t-3.072-1.792-2.944-2.368q-5.632-4.736-15.232-12.096-1.344-1.024-2.496-2.304v27.392q0 0.448 0.384 0.832t0.768 0.32h52.608q0.448 0 0.768-0.32t0.384-0.832zM59.456 16.192v-0.896t-0.064-0.448-0.064-0.448-0.192-0.32-0.32-0.256-0.512-0.128h-52.608q-0.448 0-0.768 0.384t-0.384 0.768q0 6.016 5.312 10.176 6.848 5.376 14.272 11.264 0.256 0.192 1.28 1.088t1.6 1.344 1.6 1.088 1.792 1.024 1.536 0.32h0.128q0.704 0 1.536-0.32t1.792-1.024 1.6-1.088 1.6-1.344 1.28-1.088q7.424-5.888 14.336-11.264 1.92-1.536 3.584-4.16t1.664-4.672zM64 14.848v38.848q0 2.368-1.664 4.032t-4.032 1.728h-52.608q-2.304 0-4.032-1.728t-1.664-4.032v-38.848q0-2.368 1.664-4.032t4.032-1.664h52.608q2.368 0 4.032 1.664t1.664 4.032z"></path>
</svg>