<svg version="1.1" xmlns="http://www.w3.org/2000/svg" width="14" height="14" viewBox="0 0 49 64">
<title>electro-marker-icon</title>
<path d="M22.912 0h3.84c6.848 0.896 13.632 3.968 17.92 9.536 2.752 3.52 4.224 7.872 4.544 12.288v3.072c-0.512 5.824-2.688 11.328-5.504 16.32-4.928 8.64-11.968 15.808-18.944 22.784h-0.128c-7.424-6.464-13.44-14.4-18.752-22.656-3.136-4.928-5.44-10.56-5.888-16.448v-2.624c0.512-8.384 5.888-16.192 13.44-19.648 2.944-1.472 6.208-2.176 9.472-2.624M14.336 6.976c-4.928 2.688-8.768 7.616-9.664 13.184-0.704 4.8 0.576 9.6 2.496 13.888 4.096 9.216 10.688 16.896 17.472 24.192 0.192-0.128 0.512-0.32 0.64-0.448 6.016-6.72 11.904-13.76 16.256-21.696 2.496-4.736 3.968-10.112 3.2-15.488-0.832-6.144-5.248-11.456-10.752-14.208-6.144-3.136-13.696-2.688-19.648 0.576zM23.296 12.992c4.288-0.512 9.024 1.408 11.2 5.248 2.304 4.48 1.28 10.752-2.944 13.696-5.504 3.968-14.592 1.984-17.344-4.352-1.472-3.136-0.704-6.72 0.832-9.6 1.728-2.88 4.992-4.608 8.256-4.992M22.336 17.472c-1.92 0.64-3.648 2.112-4.224 4.16-1.152 3.776 1.984 8.256 6.016 8.192 3.776 0.384 7.808-2.688 7.36-6.72 0-4.48-5.184-7.168-9.152-5.632z"></path>
</svg>