<svg aria-hidden="true" style="position: absolute; width: 0; height: 0; overflow: hidden;" version="1.1" xmlns="http://www.w3.org/2000/svg" xmlns:xlink="http://www.w3.org/1999/xlink">
<defs>
<symbol id="to-cart" viewBox="0 0 32 32">
<path d="M1.054 1.212c1.656-0.331 3.373 0.090 4.819 0.843 1.235 0.632 1.988 1.928 2.379 3.223 0.452 1.416 0.632 2.891 0.904 4.337 0.452 2.379 1.084 4.728 1.446 7.108 0.181 0.964 0.331 1.988 0.994 2.771 0.663 0.753 1.777 0.783 2.741 0.813 2.53 0 5.090-0.12 7.62 0.060 0.632 0.030 1.355 0 1.717-0.632 1.656-2.5 3.042-5.18 4.367-7.891 0.271-0.542 0.602-1.114 1.205-1.325 0.632-0.211 1.416-0.12 1.897 0.361 0.542 0.602 0.632 1.506 0.331 2.229-1.265 2.53-2.44 5.090-4.006 7.469-0.693 1.024-1.416 2.138-2.44 2.891-0.843 0.602-1.928 0.392-2.891 0.361-2.952-0.030-5.903 0.181-8.824 0-1.958-0.151-3.885-1.114-5-2.771-0.813-1.295-1.114-2.861-1.416-4.337-0.602-3.192-1.235-6.355-1.837-9.547-0.181-0.753-0.422-1.596-1.084-2.048-1.054-0.753-2.53-0.12-3.554-0.934-0.632-0.452-0.331-1.265-0.392-1.928-0.060-0.572 0.542-0.934 1.024-1.054zM16.203 3.26c-0.030-0.572 0.663-0.723 1.114-0.843 0.964-0.151 2.168-0.181 2.921 0.542 0.211 1.777 0.301 3.584 0.361 5.361 0.904 0.060 1.807-0.12 2.711-0.030 0.331 0.030 0.723 0.241 0.693 0.632-0.151 0.693-0.693 1.205-1.114 1.747-1.265 1.626-2.711 3.072-4.156 4.488-0.211 0.211-0.482 0.331-0.753 0.211-0.572-0.241-0.934-0.813-1.355-1.265-0.994-1.084-1.988-2.138-2.891-3.253-0.452-0.572-1.024-1.054-1.235-1.747-0.12-0.392 0.241-0.753 0.632-0.783 0.904-0.12 1.807 0.060 2.711 0 0.12-1.687 0.181-3.373 0.361-5.060zM11.896 25.216c1.144-0.331 2.44 0 3.192 0.873 1.114 1.235 0.934 3.403-0.452 4.337-1.476 1.084-3.976 0.572-4.668-1.205-0.783-1.566 0.301-3.584 1.928-4.006zM21.353 26.12c1.144-1.355 3.464-1.385 4.638-0.060 0.994 1.084 0.964 2.921-0.030 4.006-0.572 0.602-1.385 0.964-2.199 0.994h-0.060c-0.873-0.030-1.777-0.392-2.319-1.054-0.964-1.084-0.994-2.831-0.030-3.885z"></path>
</symbol>
<symbol id="credit-card" viewBox="0 0 32 32">
<path d="M27.714 28.267h-23.427c-2.364 0-4.287-1.915-4.287-4.267v-16c0-2.353 1.923-4.267 4.287-4.267h23.426c2.363 0 4.287 1.914 4.287 4.267v16c0.001 2.352-1.923 4.267-4.286 4.267zM4.287 4.952c-1.689 0-3.062 1.367-3.062 3.048v16c0 1.68 1.373 3.047 3.062 3.047h23.426c1.689 0 3.062-1.367 3.062-3.047v-16c0-1.681-1.374-3.048-3.062-3.048h-23.426zM22.084 7.317c1.528 0 2.767 1.232 2.767 2.754s-1.238 2.754-2.767 2.754c-1.529 0-2.767-1.233-2.767-2.754s1.239-2.754 2.767-2.754zM25.942 7.317c1.528 0 2.768 1.232 2.768 2.754s-1.239 2.754-2.768 2.754c-1.529 0-2.767-1.233-2.767-2.754s1.239-2.754 2.767-2.754zM3.292 21.156h5.101v1.828h-5.101v-1.828zM10.064 21.156h5.102v1.828h-5.102v-1.828zM16.834 21.156h5.103v1.828h-5.103v-1.828zM23.606 21.156h5.103v1.828h-5.103v-1.828zM3.292 7.318h9.643v1.829h-9.643v-1.829zM3.292 10.946h5.102v1.829h-5.102v-1.829z"></path>
</symbol>
<symbol id="mail" viewBox="0 0 32 32">
<path fill="#000" style="fill: var(--color1, #000)" d="M31.452 5.6h-30.904c-0.145 0-0.285 0.059-0.387 0.163s-0.161 0.246-0.161 0.393v19.688c0 0.148 0.058 0.289 0.161 0.393s0.242 0.163 0.387 0.163h30.904c0.145 0 0.285-0.059 0.388-0.163s0.16-0.246 0.16-0.393v-19.688c0-0.147-0.058-0.289-0.16-0.393s-0.242-0.163-0.388-0.163zM26.062 17.626c0.086 0.394 0.174 0.802 0.059 1.004-0.124 0.217-0.524 0.343-0.911 0.465-0.305 0.096-0.621 0.196-0.902 0.361-0.272 0.16-0.507 0.383-0.734 0.599-0.313 0.298-0.608 0.579-0.875 0.579s-0.563-0.281-0.875-0.579c-0.227-0.216-0.462-0.44-0.734-0.599-0.281-0.165-0.597-0.265-0.902-0.361-0.387-0.122-0.787-0.248-0.91-0.465-0.115-0.202-0.027-0.61 0.059-1.004 0.070-0.324 0.143-0.658 0.143-1.001s-0.073-0.677-0.143-1.001c-0.086-0.394-0.174-0.802-0.059-1.004 0.124-0.217 0.524-0.343 0.91-0.465 0.305-0.096 0.621-0.196 0.902-0.361 0.272-0.16 0.507-0.383 0.734-0.599 0.313-0.298 0.608-0.579 0.875-0.579s0.563 0.281 0.875 0.579c0.227 0.216 0.462 0.44 0.734 0.599 0.281 0.165 0.597 0.265 0.902 0.361 0.387 0.122 0.787 0.248 0.91 0.465 0.115 0.202 0.027 0.61-0.059 1.004-0.070 0.324-0.143 0.658-0.143 1.001s0.073 0.677 0.143 1.001zM24.478 12.529c-0.050-0.047-0.102-0.095-0.154-0.145-0.412-0.392-0.924-0.88-1.625-0.88s-1.213 0.488-1.625 0.88c-0.19 0.181-0.37 0.352-0.533 0.448-0.175 0.103-0.419 0.18-0.678 0.262-0.56 0.177-1.196 0.377-1.534 0.971-0.329 0.577-0.187 1.227-0.062 1.801 0.060 0.278 0.117 0.54 0.117 0.761s-0.057 0.484-0.117 0.761c-0.108 0.498-0.228 1.053-0.044 1.568l-2.222 2.283-14.14-14.525h28.28l-5.662 5.816zM9.361 16l-8.265 8.489v-16.979l8.265 8.489zM10.131 16.791l5.479 5.628c0.051 0.052 0.112 0.094 0.179 0.122s0.139 0.043 0.211 0.043c0.072 0 0.144-0.015 0.211-0.043s0.128-0.070 0.179-0.122l2.558-2.628c0.288 0.168 0.612 0.271 0.915 0.366 0.259 0.082 0.504 0.159 0.678 0.262 0.163 0.096 0.343 0.267 0.533 0.448 0.412 0.392 0.924 0.88 1.625 0.88s1.213-0.488 1.625-0.88c0.19-0.181 0.37-0.352 0.533-0.448 0.106-0.062 0.238-0.115 0.383-0.165l4.9 5.033h-28.281l8.271-8.496zM26.373 19.836c0.276-0.147 0.525-0.347 0.697-0.648 0.329-0.577 0.187-1.227 0.062-1.801-0.060-0.278-0.117-0.54-0.117-0.761s0.057-0.484 0.117-0.761c0.125-0.574 0.266-1.224-0.062-1.801-0.338-0.593-0.973-0.794-1.534-0.971l-0.051-0.016 5.419-5.567v16.98l-4.531-4.654z"></path>
<path fill="#000" style="fill: var(--color1, #000)" d="M22.699 13.794c-1.538 0-2.79 1.27-2.79 2.832s1.252 2.832 2.79 2.832 2.79-1.27 2.79-2.832c0-1.561-1.252-2.832-2.79-2.832zM22.699 18.345c-0.934 0-1.694-0.771-1.694-1.719s0.76-1.719 1.694-1.719c0.934 0 1.694 0.771 1.694 1.719s-0.76 1.719-1.694 1.719z"></path>
</symbol>
<symbol id="phone" viewBox="0 0 32 32">
<path fill="#000" style="fill: var(--color1, #000)" d="M31.957 10.316l-1.949-4.792c-0.033-0.082-0.085-0.155-0.15-0.213s-0.143-0.1-0.227-0.122l-2.342-0.622c-6.858-1.822-15.72-1.822-22.578 0l-2.342 0.622c-0.084 0.022-0.162 0.064-0.227 0.122s-0.117 0.131-0.15 0.213l-1.949 4.792c-0.054 0.132-0.057 0.28-0.011 0.414l0.779 2.236c0.045 0.13 0.135 0.239 0.252 0.307s0.254 0.090 0.386 0.063l7.405-1.518c0.111-0.023 0.213-0.080 0.292-0.163s0.132-0.19 0.151-0.304l0.641-3.891c3.53-0.909 8.591-0.909 12.121 0l0.641 3.891c0.019 0.115 0.071 0.221 0.151 0.305s0.181 0.14 0.292 0.163l7.405 1.518c0.132 0.027 0.269 0.004 0.386-0.064s0.207-0.177 0.252-0.307l0.78-2.236c0.047-0.135 0.043-0.282-0.010-0.414zM1.706 12.113l-0.4-1.148 7.172-1.536-0.221 1.341-6.551 1.343zM9.298 6.445c-0.103 0.029-0.196 0.088-0.267 0.169s-0.119 0.182-0.137 0.289l-0.216 1.308-7.19 1.54 1.432-3.522 2.073-0.551c6.687-1.776 15.328-1.776 22.015 0l2.073 0.551 1.432 3.522-7.19-1.54-0.216-1.308c-0.018-0.108-0.065-0.208-0.137-0.289s-0.164-0.14-0.267-0.169c-3.821-1.081-9.584-1.081-13.405 0zM30.294 12.113l-6.551-1.343-0.221-1.341 7.172 1.536-0.4 1.148z"></path>
<path fill="#000" style="fill: var(--color1, #000)" d="M26.632 13.695c-0.023-0.108-0.076-0.206-0.152-0.283s-0.173-0.131-0.278-0.154l-3.82-0.837-0.481-3.21c-0.020-0.136-0.087-0.259-0.189-0.349s-0.231-0.139-0.365-0.139h-1.496v-0.752c0-0.317-0.251-0.575-0.561-0.575s-0.561 0.257-0.561 0.575v0.752h-5.459v-0.752c0-0.317-0.251-0.575-0.561-0.575s-0.561 0.257-0.561 0.575v0.752h-1.496c-0.134 0-0.264 0.049-0.365 0.139s-0.169 0.213-0.189 0.349l-0.481 3.21-3.82 0.837c-0.105 0.023-0.202 0.076-0.278 0.154s-0.129 0.176-0.153 0.283l-2.594 11.975c-0.009 0.041-0.013 0.083-0.013 0.124v2.431c0 0.152 0.059 0.299 0.164 0.406s0.248 0.168 0.397 0.168h25.356c0.149 0 0.291-0.061 0.397-0.168s0.164-0.254 0.164-0.406v-2.431c0-0.042-0.004-0.084-0.013-0.124l-2.594-11.975zM6.385 14.304l3.846-0.842c0.111-0.024 0.213-0.083 0.291-0.168s0.129-0.192 0.146-0.307l0.467-3.114h9.731l0.467 3.114c0.017 0.115 0.068 0.222 0.146 0.307s0.18 0.143 0.291 0.168l3.846 0.842 2.364 10.916h-23.958l2.364-10.916zM9.437 26.369l-0.722 1.281h-0.853l0.722-1.281h0.853zM10.733 26.369h12.205l-0.722 1.281h-12.205l0.722-1.281zM3.883 26.369h3.406l-0.722 1.281h-2.684v-1.281zM23.511 27.651l0.722-1.281h3.884v1.281h-4.606z"></path>
<path fill="#000" style="fill: var(--color1, #000)" d="M16 24.128c3.319 0 6.020-2.767 6.020-6.168s-2.7-6.169-6.020-6.169c-3.319 0-6.020 2.767-6.020 6.169s2.7 6.168 6.020 6.168zM16 12.941c2.701 0 4.898 2.252 4.898 5.019s-2.197 5.019-4.898 5.019c-2.701 0-4.898-2.252-4.898-5.019s2.197-5.019 4.898-5.019z"></path>
<path fill="#000" style="fill: var(--color1, #000)" d="M16 20.148c1.177 0 2.135-0.982 2.135-2.188s-0.958-2.188-2.135-2.188c-1.177 0-2.135 0.982-2.135 2.188s0.958 2.188 2.135 2.188zM16 16.921c0.559 0 1.014 0.466 1.014 1.039s-0.455 1.039-1.014 1.039c-0.559 0-1.014-0.466-1.014-1.039s0.455-1.039 1.014-1.039z"></path>
</symbol>
<symbol id="pin" viewBox="0 0 32 32">
<path fill="#000" style="fill: var(--color1, #000)" d="M16 0c-6.065 0-11 4.785-11 10.667 0 1.766 0.455 3.516 1.321 5.069l9.078 15.921c0.121 0.212 0.351 0.344 0.601 0.344s0.481-0.131 0.602-0.344l9.081-15.926c0.862-1.547 1.317-3.298 1.317-5.064 0-5.881-4.935-10.667-11-10.667zM24.476 15.091l-8.476 14.865-8.473-14.859c-0.754-1.353-1.152-2.885-1.152-4.43 0-5.146 4.318-9.333 9.625-9.333s9.625 4.187 9.625 9.333c0 1.545-0.398 3.077-1.149 4.424z"></path>
<path fill="#000" style="fill: var(--color1, #000)" d="M16 5.333c-3.033 0-5.5 2.393-5.5 5.333s2.467 5.333 5.5 5.333c3.033 0 5.5-2.393 5.5-5.333s-2.467-5.333-5.5-5.333zM16 14.667c-2.275 0-4.125-1.794-4.125-4s1.85-4 4.125-4c2.275 0 4.125 1.794 4.125 4s-1.85 4-4.125 4z"></path>
</symbol>
<symbol id="icon-menu" viewBox="0 0 32 32">
<path d="M2 6h28v6h-28zM2 14h28v6h-28zM2 22h28v6h-28z"></path>
</symbol>
<symbol id="cross" viewBox="0 0 32 32">
<path d="M31.708 25.708c-0-0-0-0-0-0l-9.708-9.708 9.708-9.708c0-0 0-0 0-0 0.105-0.105 0.18-0.227 0.229-0.357 0.133-0.356 0.057-0.771-0.229-1.057l-4.586-4.586c-0.286-0.286-0.702-0.361-1.057-0.229-0.13 0.048-0.252 0.124-0.357 0.228 0 0-0 0-0 0l-9.708 9.708-9.708-9.708c-0-0-0-0-0-0-0.105-0.104-0.227-0.18-0.357-0.228-0.356-0.133-0.771-0.057-1.057 0.229l-4.586 4.586c-0.286 0.286-0.361 0.702-0.229 1.057 0.049 0.13 0.124 0.252 0.229 0.357 0 0 0 0 0 0l9.708 9.708-9.708 9.708c-0 0-0 0-0 0-0.104 0.105-0.18 0.227-0.229 0.357-0.133 0.355-0.057 0.771 0.229 1.057l4.586 4.586c0.286 0.286 0.702 0.361 1.057 0.229 0.13-0.049 0.252-0.124 0.357-0.229 0-0 0-0 0-0l9.708-9.708 9.708 9.708c0 0 0 0 0 0 0.105 0.105 0.227 0.18 0.357 0.229 0.356 0.133 0.771 0.057 1.057-0.229l4.586-4.586c0.286-0.286 0.362-0.702 0.229-1.057-0.049-0.13-0.124-0.252-0.229-0.357z"></path>
</symbol>
<symbol id="checkmark" viewBox="0 0 32 32">
<path d="M27 4l-15 15-7-7-5 5 12 12 20-20z"></path>
</symbol>
<symbol id="arrow-right" viewBox="0 0 32 32">
<path d="M19.414 27.414l10-10c0.781-0.781 0.781-2.047 0-2.828l-10-10c-0.781-0.781-2.047-0.781-2.828 0s-0.781 2.047 0 2.828l6.586 6.586h-19.172c-1.105 0-2 0.895-2 2s0.895 2 2 2h19.172l-6.586 6.586c-0.39 0.39-0.586 0.902-0.586 1.414s0.195 1.024 0.586 1.414c0.781 0.781 2.047 0.781 2.828 0z"></path>
</symbol>
<symbol id="arrow-left" viewBox="0 0 32 32">
<path d="M12.586 27.414l-10-10c-0.781-0.781-0.781-2.047 0-2.828l10-10c0.781-0.781 2.047-0.781 2.828 0s0.781 2.047 0 2.828l-6.586 6.586h19.172c1.105 0 2 0.895 2 2s-0.895 2-2 2h-19.172l6.586 6.586c0.39 0.39 0.586 0.902 0.586 1.414s-0.195 1.024-0.586 1.414c-0.781 0.781-2.047 0.781-2.828 0z"></path>
</symbol>
<symbol id="circle-up" viewBox="0 0 32 32">
<path d="M0 16c0 8.837 7.163 16 16 16s16-7.163 16-16-7.163-16-16-16-16 7.163-16 16zM29 16c0 7.18-5.82 13-13 13s-13-5.82-13-13 5.82-13 13-13 13 5.82 13 13z"></path>
<path d="M22.086 20.914l2.829-2.829-8.914-8.914-8.914 8.914 2.828 2.828 6.086-6.086z"></path>
</symbol>
</defs>
</svg>
